<svg width="20" height="20" viewBox="0 0 20 20" fill="none" xmlns="http://www.w3.org/2000/svg">
<path fill-rule="evenodd" clip-rule="evenodd" d="M0.29956 1.81813C0.108776 1.61319 0.00491247 1.34212 0.00984942 1.06204C0.0147864 0.78196 0.128139 0.51473 0.326026 0.316651C0.523913 0.118572 0.790885 0.00511015 1.0707 0.000168433C1.35051 -0.00477329 1.62131 0.0991912 1.82606 0.290159L5.61205 4.07838C6.91822 3.35908 8.40583 2.85024 10 2.85024C12.2062 2.85024 14.2051 3.82612 15.8108 4.98363C17.4208 6.14403 18.6953 7.53362 19.4672 8.4677L19.4729 8.47491C19.8185 8.90447 20 9.44791 20 10C20 10.5521 19.8185 11.0955 19.4729 11.5251L19.4672 11.5337C18.5059 12.7055 17.4199 13.7688 16.2284 14.705L19.7005 18.1819C19.8912 18.3868 19.9951 18.6579 19.9902 18.938C19.9852 19.218 19.8719 19.4853 19.674 19.6833C19.4761 19.8814 19.2091 19.9949 18.9293 19.9998C18.6495 20.0048 18.3787 19.9008 18.174 19.7098L0.29956 1.81813ZM12.9047 11.3795C13.1895 10.7795 13.2819 10.106 13.1691 9.45135C13.0562 8.79673 12.7437 8.19311 12.2744 7.72338C11.8051 7.25365 11.2021 6.94084 10.5481 6.82788C9.89414 6.71493 9.22125 6.80737 8.62184 7.09252L12.9047 11.3795ZM0.534294 8.4677C0.993683 7.90985 1.63164 7.19199 2.41361 6.45683L12.644 16.6971C11.7933 16.9915 10.9001 17.1443 10 17.1498C7.79379 17.1498 5.79495 16.1753 4.18924 15.0178C2.57922 13.856 1.30474 12.4664 0.532854 11.5337L0.527094 11.5251C0.183608 11.0913 -0.00226298 10.5535 2.07968e-05 10C2.07968e-05 9.44791 0.181472 8.90447 0.527094 8.47491L0.534294 8.4677Z" fill="white" fill-opacity="0.81"/>
</svg>
