<svg width="40" height="40" viewBox="0 0 40 40" fill="none" xmlns="http://www.w3.org/2000/svg">
<path d="M23.3334 3.33337L33.3334 13.3334V33.3334C33.3334 34.2174 32.9822 35.0653 32.3571 35.6904C31.732 36.3155 30.8841 36.6667 30.0001 36.6667H10.0001C9.11603 36.6667 8.26818 36.3155 7.64306 35.6904C7.01794 35.0653 6.66675 34.2174 6.66675 33.3334V6.66671C6.66675 5.78265 7.01794 4.93481 7.64306 4.30968C8.26818 3.68456 9.11603 3.33337 10.0001 3.33337H23.3334ZM30.0001 33.3334V15H21.6667V6.66671H10.0001V33.3334H30.0001ZM28.3334 21.6667V31.6667H11.6667L20.0001 23.3334L23.3334 26.6667M16.6667 17.5C16.6667 18.1631 16.4034 18.799 15.9345 19.2678C15.4657 19.7366 14.8298 20 14.1667 20C13.5037 20 12.8678 19.7366 12.399 19.2678C11.9301 18.799 11.6667 18.1631 11.6667 17.5C11.6667 16.837 11.9301 16.2011 12.399 15.7323C12.8678 15.2634 13.5037 15 14.1667 15C14.8298 15 15.4657 15.2634 15.9345 15.7323C16.4034 16.2011 16.6667 16.837 16.6667 17.5Z" fill="black"/>
</svg>
