<svg width="20" height="20" viewBox="0 0 20 20" fill="none" xmlns="http://www.w3.org/2000/svg">
<path d="M4.1665 7.62508V5.83341C4.1665 4.91675 4.9165 4.16675 5.83317 4.16675H14.1665C15.0832 4.16675 15.8332 4.91675 15.8332 5.83341V7.63341C14.8665 7.97508 14.1665 8.89175 14.1665 9.97508V11.6667H5.83317V9.96675C5.83317 8.89175 5.13317 7.96675 4.1665 7.62508ZM16.6665 8.33341C15.7498 8.33341 14.9998 9.08341 14.9998 10.0001V12.5001H4.99984V10.0001C4.99984 9.55805 4.82424 9.13413 4.51168 8.82157C4.19912 8.50901 3.7752 8.33341 3.33317 8.33341C2.89114 8.33341 2.46722 8.50901 2.15466 8.82157C1.8421 9.13413 1.6665 9.55805 1.6665 10.0001V14.1667C1.6665 15.0834 2.4165 15.8334 3.33317 15.8334V17.5001H4.99984V15.8334H14.9998V17.5001H16.6665V15.8334C17.5832 15.8334 18.3332 15.0834 18.3332 14.1667V10.0001C18.3332 9.08341 17.5832 8.33341 16.6665 8.33341Z" fill="#3CC2EA"/>
</svg>
