<svg width="21" height="20" viewBox="0 0 21 20" fill="none" xmlns="http://www.w3.org/2000/svg">
<path d="M4.70166 7.62496V5.83329C4.70166 4.91663 5.45166 4.16663 6.36833 4.16663H14.7017C15.6183 4.16663 16.3683 4.91663 16.3683 5.83329V7.63329C15.4017 7.97496 14.7017 8.89163 14.7017 9.97496V11.6666H6.36833V9.96663C6.36833 8.89163 5.66833 7.96663 4.70166 7.62496ZM17.2017 8.33329C16.285 8.33329 15.535 9.08329 15.535 9.99996V12.5H5.53499V9.99996C5.53499 9.55793 5.3594 9.13401 5.04684 8.82145C4.73428 8.50889 4.31035 8.33329 3.86833 8.33329C3.4263 8.33329 3.00238 8.50889 2.68982 8.82145C2.37725 9.13401 2.20166 9.55793 2.20166 9.99996V14.1666C2.20166 15.0833 2.95166 15.8333 3.86833 15.8333V17.5H5.53499V15.8333H15.535V17.5H17.2017V15.8333C18.1183 15.8333 18.8683 15.0833 18.8683 14.1666V9.99996C18.8683 9.08329 18.1183 8.33329 17.2017 8.33329Z" fill="white" fill-opacity="0.81"/>
</svg>
