<svg width="24" height="24" viewBox="0 0 24 24" fill="none" xmlns="http://www.w3.org/2000/svg">
<g clip-path="url(#clip0_397_5)">
<path fill-rule="evenodd" clip-rule="evenodd" d="M15 19C15.0002 19.5046 14.8096 19.9906 14.4665 20.3605C14.1234 20.7305 13.6532 20.9572 13.15 20.995L13 21H11C10.4954 21.0002 10.0094 20.8096 9.63945 20.4665C9.26947 20.1234 9.04284 19.6532 9.005 19.15L9 19H15ZM12 2C13.815 1.99997 15.559 2.70489 16.8642 3.96607C18.1694 5.22726 18.9338 6.94609 18.996 8.76L19 9V12.764L20.822 16.408C20.9015 16.567 20.9413 16.7429 20.938 16.9206C20.9346 17.0984 20.8883 17.2727 20.8029 17.4286C20.7174 17.5845 20.5955 17.7174 20.4475 17.8158C20.2995 17.9143 20.1298 17.9754 19.953 17.994L19.838 18H4.162C3.98417 18.0001 3.80897 17.957 3.65142 17.8745C3.49388 17.792 3.35868 17.6725 3.25742 17.5264C3.15616 17.3802 3.09185 17.2116 3.07001 17.0351C3.04816 16.8586 3.06944 16.6795 3.132 16.513L3.178 16.408L5 12.764V9C5 7.14348 5.7375 5.36301 7.05025 4.05025C8.36301 2.7375 10.1435 2 12 2ZM12 4C10.7115 4.00007 9.47284 4.49754 8.54222 5.38866C7.61161 6.27978 7.06092 7.49575 7.005 8.783L7 9V12.764C7.00001 13.012 6.95389 13.2579 6.864 13.489L6.789 13.659L5.619 16H18.382L17.212 13.658C17.101 13.4363 17.0322 13.1959 17.009 12.949L17 12.764V9C17 7.67392 16.4732 6.40215 15.5355 5.46447C14.5979 4.52678 13.3261 4 12 4Z" fill="white" fill-opacity="0.81"/>
</g>
<defs>
<clipPath id="clip0_397_5">
<rect width="24" height="24" fill="white"/>
</clipPath>
</defs>
</svg>
