<svg width="24" height="24" viewBox="0 0 24 24" fill="none" xmlns="http://www.w3.org/2000/svg">
<path d="M13.22 19.03C13.0795 18.8894 13.0007 18.6988 13.0007 18.5C13.0007 18.3013 13.0795 18.1106 13.22 17.97L18.19 13H3.75C3.55109 13 3.36032 12.921 3.21967 12.7804C3.07902 12.6397 3 12.4489 3 12.25C3 12.0511 3.07902 11.8603 3.21967 11.7197C3.36032 11.579 3.55109 11.5 3.75 11.5H18.19L13.22 6.53002C13.1213 6.43835 13.0491 6.32175 13.0111 6.1925C12.9731 6.06325 12.9706 5.92614 13.004 5.79562C13.0374 5.66509 13.1053 5.54598 13.2007 5.45085C13.2961 5.35571 13.4154 5.28805 13.546 5.25502C13.6764 5.2216 13.8133 5.22394 13.9425 5.26177C14.0717 5.2996 14.1883 5.37154 14.28 5.47002L20.53 11.72C20.6705 11.8606 20.7493 12.0513 20.7493 12.25C20.7493 12.4488 20.6705 12.6394 20.53 12.78L14.28 19.03C14.1394 19.1705 13.9488 19.2494 13.75 19.2494C13.5512 19.2494 13.3606 19.1705 13.22 19.03Z" fill="white" fill-opacity="0.81"/>
</svg>
