<svg width="20" height="20" viewBox="0 0 20 20" fill="none" xmlns="http://www.w3.org/2000/svg">
<g clip-path="url(#clip0_997_935)">
<path fill-rule="evenodd" clip-rule="evenodd" d="M4.19004 4.98718C5.79433 3.83003 7.79433 2.85718 10 2.85718C12.2058 2.85718 14.2058 3.83146 15.81 4.98718C17.4215 6.14718 18.6958 7.53575 19.4672 8.46861L19.4743 8.47575C19.8186 8.90432 20 9.44861 20 10C20 10.5515 19.8186 11.0943 19.4743 11.5243L19.4672 11.5315C18.6958 12.4643 17.4215 13.8529 15.81 15.0129C14.2058 16.1715 12.2058 17.1429 10 17.1429C7.79433 17.1429 5.79433 16.1686 4.19004 15.0143C2.57861 13.8515 1.30433 12.4629 0.532896 11.53L0.525754 11.5229C0.182345 11.0899 -0.00310192 10.5527 3.92579e-05 10C3.92579e-05 9.44861 0.181468 8.90575 0.525754 8.47575L0.532896 8.46861C1.30433 7.53575 2.57861 6.14718 4.19004 4.98718ZM10 13.2143C10.4221 13.2143 10.8401 13.1312 11.2301 12.9696C11.6201 12.8081 11.9744 12.5714 12.2729 12.2729C12.5714 11.9744 12.8081 11.6201 12.9697 11.2301C13.1312 10.8401 13.2143 10.4221 13.2143 10C13.2143 9.57793 13.1312 9.15996 12.9697 8.76998C12.8081 8.38001 12.5714 8.02567 12.2729 7.72719C11.9744 7.42872 11.6201 7.19195 11.2301 7.03042C10.8401 6.86889 10.4221 6.78575 10 6.78575C9.14756 6.78575 8.32999 7.1244 7.7272 7.72719C7.1244 8.32999 6.78575 9.14755 6.78575 10C6.78575 10.8525 7.1244 11.6701 7.7272 12.2729C8.32999 12.8757 9.14756 13.2143 10 13.2143Z" fill="white" fill-opacity="0.81"/>
</g>
<defs>
<clipPath id="clip0_997_935">
<rect width="20" height="20" fill="white"/>
</clipPath>
</defs>
</svg>
