<svg width="24" height="24" viewBox="0 0 24 24" fill="none" xmlns="http://www.w3.org/2000/svg">
<g clip-path="url(#clip0_1181_855)">
<path d="M12.088 4.82003C13.562 4.0954 15.1917 3.74499 16.8333 3.79975C18.4748 3.85452 20.0776 4.31277 21.5 5.13403C21.6347 5.21178 21.7494 5.31988 21.8349 5.44973C21.9205 5.57958 21.9746 5.7276 21.993 5.88203L22 6.00003V19C22 19.1756 21.9538 19.348 21.866 19.5C21.7782 19.652 21.652 19.7783 21.5 19.866C21.348 19.9538 21.1755 20 21 20C20.8245 20 20.652 19.9538 20.5 19.866C19.2838 19.1639 17.9043 18.7942 16.5 18.7942C15.0957 18.7942 13.7162 19.1639 12.5 19.866C12.348 19.9538 12.1755 20 12 20C11.8245 20 11.652 19.9538 11.5 19.866C10.3287 19.1896 9.00494 18.8213 7.65257 18.7954C6.30021 18.7695 4.96337 19.087 3.767 19.718L3.44 19.898L3.337 19.942L3.288 19.958L3.178 19.984L3.117 19.994L3 20H2.958L2.848 19.988L2.771 19.974L2.663 19.942L2.537 19.886L2.442 19.83L2.353 19.763L2.293 19.707L2.22 19.625L2.156 19.536L2.134 19.5L2.102 19.44L2.058 19.337L2.042 19.288L2.016 19.178L2.006 19.117L2.002 19.068L2 19V6.00003C2 5.82449 2.04621 5.65205 2.13398 5.50004C2.22175 5.34803 2.34798 5.22179 2.5 5.13403C3.9224 4.31277 5.52518 3.85452 7.16672 3.79975C8.80827 3.74499 10.438 4.0954 11.912 4.82003L12 4.86403L12.088 4.82003Z" fill="#309D1D"/>
</g>
<defs>
<clipPath id="clip0_1181_855">
<rect width="24" height="24" fill="white"/>
</clipPath>
</defs>
</svg>
